<?xml version="1.0" standalone="no"?>
<!DOCTYPE svg PUBLIC "-//W3C//DTD SVG 20010904//EN"
 "http://www.w3.org/TR/2001/REC-SVG-20010904/DTD/svg10.dtd">
<svg version="1.0" xmlns="http://www.w3.org/2000/svg"
 width="448.000000pt" height="448.000000pt" viewBox="0 0 448.000000 448.000000"
 preserveAspectRatio="xMidYMid meet">

<g transform="translate(0.000000,448.000000) scale(0.100000,-0.100000)"
fill="#000000" stroke="none">
<path d="M2110 3154 c-127 -25 -277 -87 -360 -148 -105 -79 -205 -201 -261
-319 -97 -209 -97 -475 0 -684 113 -240 332 -410 595 -460 96 -18 258 -13 351
13 135 36 281 121 371 216 162 170 234 344 234 571 0 121 -18 214 -60 317 -93
226 -302 408 -545 475 -59 16 -275 28 -325 19z m234 -117 c76 -7 112 -25 126
-63 8 -20 3 -43 -24 -112 -55 -141 -85 -202 -99 -202 -7 0 -35 23 -62 50 l-49
50 -51 -50 c-28 -27 -55 -50 -61 -50 -18 0 -125 268 -122 303 5 45 41 67 126
74 52 4 76 11 88 25 17 18 18 18 38 -1 14 -12 43 -20 90 -24z m-363 -111 c10
-17 28 -55 40 -86 12 -30 33 -79 46 -108 12 -29 23 -57 23 -62 0 -10 -22 -12
-117 -13 -24 0 -43 -5 -44 -11 -1 -21 -5 -81 -7 -124 -2 -38 -4 -42 -20 -33
-10 5 -70 31 -133 56 -125 51 -143 63 -157 105 -12 34 3 69 55 122 26 26 36
46 36 68 0 26 4 30 29 30 18 0 42 12 65 34 67 59 101 76 135 64 16 -6 38 -25
49 -42z m675 -7 c39 -32 69 -49 87 -49 23 0 27 -4 27 -28 0 -19 15 -46 45 -81
51 -60 61 -85 46 -123 -12 -32 -32 -43 -192 -108 l-119 -48 -1 36 c0 20 -1 60
-2 87 l-2 50 -45 1 c-25 1 -61 2 -82 3 l-36 1 57 143 c51 124 62 144 90 158
42 22 57 17 127 -42z m-406 -229 c0 -25 -18 -36 -26 -16 -8 21 3 49 16 41 5
-3 10 -15 10 -25z m90 -68 c53 -18 137 -98 164 -156 27 -56 32 -142 12 -208
-19 -66 -77 -136 -145 -176 -40 -23 -57 -27 -131 -27 -71 0 -93 4 -134 25
-110 56 -161 140 -161 265 0 67 5 88 27 130 39 74 107 132 179 154 47 14 136
10 189 -7z m190 8 c0 -14 -46 -60 -60 -60 -18 0 -11 28 12 50 23 21 48 27 48
10z m-540 -20 c11 -11 20 -27 20 -35 0 -14 -3 -14 -29 -1 -31 17 -49 56 -25
56 8 0 23 -9 34 -20z m-210 -87 c77 -31 140 -60 140 -64 0 -4 -22 -31 -50 -60
-27 -29 -50 -56 -50 -59 0 -3 23 -28 50 -55 28 -27 50 -53 50 -57 0 -10 -78
-45 -209 -95 -93 -36 -93 -36 -126 -19 -37 20 -55 69 -55 150 0 35 -5 48 -22
60 l-22 16 20 19 c16 14 22 36 27 89 7 80 19 109 50 122 38 15 54 11 197 -47z
m1117 42 c26 -18 43 -72 43 -137 0 -36 5 -52 22 -68 l22 -20 -21 -19 c-15 -14
-21 -37 -26 -87 -3 -38 -9 -77 -12 -87 -11 -26 -62 -50 -93 -42 -56 14 -274
109 -279 122 -3 7 17 36 45 65 l50 52 -49 55 c-27 30 -49 58 -49 61 0 3 28 16
63 30 34 13 96 39 137 57 84 36 115 40 147 18z m-982 -215 c8 -13 -20 -24 -41
-16 -8 3 -12 10 -9 16 8 13 42 13 50 0z m695 -10 c0 -5 -11 -10 -24 -10 -14 0
-28 5 -31 10 -4 6 7 10 24 10 17 0 31 -4 31 -10z m-681 -261 l1 -47 82 -1 c45
-1 83 -3 84 -4 1 -1 -25 -66 -58 -144 -52 -122 -64 -143 -93 -159 -41 -22 -70
-12 -135 46 -34 30 -54 40 -79 40 -30 0 -33 2 -27 25 5 19 -3 36 -38 78 -65
80 -69 90 -52 132 8 19 25 39 38 45 13 5 77 32 143 59 l120 49 7 -36 c4 -21 7
-58 7 -83z m745 71 c64 -27 120 -50 124 -50 5 0 20 -13 35 -28 41 -43 36 -77
-23 -147 -34 -40 -50 -68 -50 -87 0 -24 -4 -28 -28 -28 -19 0 -49 -16 -91 -50
-69 -56 -93 -61 -133 -27 -22 18 -90 163 -131 280 -5 15 0 17 41 18 26 0 65 1
87 2 l40 2 3 83 c2 45 4 82 6 82 2 0 56 -22 120 -50z m-664 -43 c0 -16 -27
-41 -52 -50 -24 -8 -23 4 3 37 22 28 49 35 49 13z m490 -7 c25 -25 25 -40 1
-40 -18 0 -51 34 -51 52 0 15 30 8 50 -12z m-321 -116 c57 -51 52 -52 123 15
21 19 41 32 44 28 8 -8 60 -126 100 -224 47 -117 20 -161 -107 -172 -55 -5
-75 -12 -88 -27 l-17 -21 -16 22 c-14 18 -30 23 -88 27 -50 4 -80 12 -98 25
-45 33 -41 72 25 231 32 78 61 142 64 142 4 0 30 -21 58 -46z m63 29 c6 -22
-1 -43 -13 -43 -5 0 -9 14 -9 30 0 33 15 41 22 13z"/>
<path d="M2122 2574 c-29 -14 -52 -29 -52 -33 0 -3 29 -29 65 -56 l65 -49 -24
-23 c-14 -13 -28 -23 -31 -23 -3 0 -26 28 -51 63 -25 34 -47 64 -49 65 -9 9
-65 -107 -65 -134 l0 -31 43 8 c23 4 61 8 83 9 38 0 41 -2 37 -23 -3 -16 5
-34 22 -55 32 -38 30 -43 -51 -98 -51 -36 -54 -39 -37 -52 30 -23 96 -52 121
-52 23 0 23 1 17 66 -12 104 -12 99 12 96 51 -7 110 54 101 104 -3 16 3 18 37
15 22 -1 59 -6 83 -11 41 -7 42 -7 42 19 0 26 -31 104 -51 128 -9 10 -21 -1
-54 -46 -54 -73 -59 -77 -84 -52 -22 22 -58 34 -82 29 -16 -3 -16 6 -5 100 7
61 6 62 -17 62 -12 0 -46 -12 -75 -26z m168 -174 c12 -12 20 -33 20 -55 0 -22
-8 -43 -20 -55 -12 -12 -33 -20 -55 -20 -22 0 -43 8 -55 20 -12 12 -20 33 -20
55 0 22 8 43 20 55 12 12 33 20 55 20 22 0 43 -8 55 -20z"/>
<path d="M2255 2578 c3 -13 9 -49 13 -81 l7 -58 60 46 c33 26 61 50 63 55 4
11 -97 60 -125 60 -19 0 -22 -4 -18 -22z"/>
<path d="M1980 2306 c0 -28 46 -126 59 -126 6 0 23 19 40 43 16 24 36 49 45
56 25 21 19 31 -21 31 -21 1 -57 5 -80 9 -40 8 -43 7 -43 -13z"/>
<path d="M2479 2326 c-3 -4 -38 -10 -77 -14 l-71 -7 45 -60 c25 -33 49 -61 54
-63 12 -5 62 103 58 128 -2 12 -6 19 -9 16z"/>
<path d="M2266 2185 c-4 -35 -9 -72 -12 -80 -12 -29 84 -8 131 29 l26 21 -63
45 c-34 25 -66 46 -69 48 -3 1 -9 -27 -13 -63z"/>
<path d="M1440 1321 c0 -61 4 -101 10 -101 6 0 10 28 11 63 l0 62 32 -62 c17
-35 36 -63 42 -63 5 1 24 31 42 68 l31 67 1 -67 c1 -38 5 -68 11 -68 6 0 10
40 10 100 0 57 -4 100 -10 100 -5 0 -27 -37 -48 -82 l-40 -83 -36 77 c-20 42
-41 80 -46 83 -6 4 -10 -30 -10 -94z"/>
<path d="M1771 1326 c-45 -103 -46 -106 -30 -106 5 0 15 14 20 30 10 28 15 30
59 30 44 0 49 -2 59 -30 5 -16 15 -30 22 -30 13 0 13 -1 -37 115 -20 47 -40
85 -44 85 -4 0 -26 -42 -49 -94z m68 13 c6 -18 11 -34 11 -35 0 -2 -13 -4 -30
-4 -16 0 -30 2 -30 4 0 14 24 66 30 66 4 0 13 -14 19 -31z"/>
<path d="M2010 1320 l0 -100 54 0 c44 0 58 4 80 26 28 29 36 87 15 126 -13 25
-68 48 -114 48 l-35 0 0 -100z m120 50 c48 -48 9 -130 -62 -130 l-38 0 0 75 0
75 40 0 c27 0 47 -7 60 -20z"/>
<path d="M2270 1320 l0 -100 65 0 c37 0 65 4 65 10 0 6 -25 10 -55 10 l-55 0
0 35 c0 34 1 35 40 35 22 0 40 5 40 10 0 6 -18 10 -40 10 -38 0 -40 2 -40 30
0 30 1 30 55 30 42 0 55 3 55 15 0 12 -14 15 -65 15 l-65 0 0 -100z"/>
<path d="M2670 1405 c0 -8 7 -15 15 -15 12 0 15 -15 15 -75 0 -60 -3 -75 -15
-75 -8 0 -15 -4 -15 -10 0 -5 20 -10 45 -10 25 0 45 5 45 10 0 6 -9 10 -20 10
-19 0 -21 5 -18 78 2 58 6 77 17 77 8 0 16 6 19 13 2 8 -10 12 -42 12 -34 0
-46 -4 -46 -15z"/>
<path d="M2850 1320 c0 -118 18 -136 22 -23 l3 77 59 -77 c32 -42 64 -77 70
-77 8 0 10 32 8 101 -4 114 -19 123 -24 15 l-3 -69 -59 76 c-32 43 -62 77 -67
77 -5 0 -9 -45 -9 -100z"/>
<path d="M1260 1125 c-49 -15 -112 -70 -137 -119 -10 -19 -17 -57 -17 -97 -1
-56 3 -72 29 -115 19 -30 49 -60 79 -79 42 -26 59 -30 115 -30 49 1 77 7 109
23 50 27 61 47 38 70 -16 16 -19 15 -58 -7 -81 -47 -181 -23 -229 55 -32 52
-24 142 17 185 61 65 138 78 209 35 41 -25 75 -21 75 8 0 22 -46 57 -95 72
-58 17 -76 17 -135 -1z"/>
<path d="M2688 1128 c-47 -13 -113 -70 -139 -121 -42 -81 -23 -191 44 -258 48
-48 85 -63 157 -63 102 0 167 42 209 134 28 63 27 124 -5 188 -30 61 -74 98
-140 118 -53 16 -73 16 -126 2z m139 -75 c78 -36 111 -148 67 -223 -90 -155
-325 -75 -301 103 15 107 133 168 234 120z"/>
<path d="M1554 1117 c-2 -7 -3 -105 -2 -217 l3 -205 134 -3 c74 -1 139 2 144
7 5 5 6 18 2 30 -6 20 -13 21 -110 21 -114 0 -113 -1 -111 70 l1 45 107 3 c96
2 107 5 113 22 11 35 -3 40 -110 40 -116 0 -115 -1 -115 80 0 59 3 60 125 60
96 0 113 8 99 45 -8 20 -272 22 -280 2z"/>
<path d="M1880 1120 c0 -5 29 -73 65 -150 60 -130 65 -145 65 -210 l0 -70 30
0 30 0 0 70 c0 65 5 80 65 210 36 77 65 145 65 150 0 6 -14 10 -30 10 -29 0
-33 -5 -77 -100 -25 -55 -49 -100 -53 -100 -3 0 -27 45 -53 100 -43 95 -47
100 -76 100 -17 0 -31 -4 -31 -10z"/>
<path d="M2250 911 l0 -221 140 0 140 0 0 30 0 30 -110 0 -110 0 -2 188 -3
187 -27 3 -28 3 0 -220z"/>
<path d="M3040 910 l0 -220 30 0 29 0 3 153 3 152 103 -153 c94 -140 105 -153
130 -150 l27 3 0 215 0 215 -27 3 c-18 2 -28 -2 -29 -10 0 -7 -1 -75 -1 -150
0 -76 -3 -138 -7 -138 -5 0 -53 67 -107 150 -87 132 -102 150 -126 150 l-28 0
0 -220z"/>
</g>
</svg>
